<svg role="img" viewBox="0 0 24 24" xmlns="http://www.w3.org/2000/svg">
  <rect width="24" height="24" fill="#F7DF1E"/>
  <path fill="#000000" d="M7.5 18.5l1.8-1.1c.3.6.6 1 1.3 1 .7 0 1.2-.3 1.2-1.5V10h2.2v7c0 2.3-1.3 3.4-3.2 3.4-1.7 0-2.7-.9-3.3-1.9zm7.5.2l1.8-1c.5.8 1.1 1.4 2.2 1.4.9 0 1.5-.4 1.5-1 0-.7-.6-1-1.7-1.5l-.6-.3c-1.7-.7-2.8-1.6-2.8-3.4 0-1.7 1.3-3 3.4-3 1.5 0 2.6.5 3.3 1.8l-1.7 1.1c-.4-.7-.9-1-1.6-1-.8 0-1.3.4-1.3 1 0 .7.4 1 1.5 1.4l.6.3c2 .8 3 1.7 3 3.5 0 1.9-1.5 3-3.6 3-2 0-3.4-.9-4.2-2.3z"/>
</svg>